<?xml version="1.0" ?><svg style="enable-background:new 0 0 512 512;" version="1.1" viewBox="0 0 512 512" xml:space="preserve" xmlns="http://www.w3.org/2000/svg" xmlns:xlink="http://www.w3.org/1999/xlink"><g id="outerdark"><path d="M256.5,20C126.4,20,21,125.4,21,255.5S126.4,491,256.5,491S492,385.6,492,255.5S386.6,20,256.5,20z    M256,460.5c-112.9,0-204.5-91.6-204.5-204.5S143.1,51.5,256,51.5S460.5,143.1,460.5,256S368.9,460.5,256,460.5z" style="fill:#05CC47;"/></g><g id="outerlight"><path d="M423.1,89l-22.4,22.4c37,37,59.8,88.1,59.8,144.6c0,112.9-91.6,204.5-204.5,204.5   c-56.4,0-107.6-22.9-144.6-59.8L90,422.1c92,92,241.1,92,333,0S515,181,423.1,89z" style="opacity:0.2;fill:#FFFFFF;"/></g><g id="innerdark"><circle cx="256" cy="256" r="180" style="fill:#05CC47;"/></g><g id="Deviantart"><g><defs><rect height="188" id="SVGID_1_" width="208.2" x="151.9" y="162"/></defs><clipPath id="SVGID_2_"><use style="overflow:visible;" xlink:href="#SVGID_1_"/></clipPath></g><g id="nGtHlu.tif"><g><path d="M282.4,152c12.6,0,25.2,0,37.8,0c0,0.5,0,1,0,1.5c0,11.7,0,23.4,0,35.1c0,0.9-0.2,1.7-0.6,2.5     c-11.9,22.7-23.8,45.5-35.8,68.2c-1.3,2.5-1.5,4.2,0.6,6.1c0.7,0.6,1.2,1,2.2,1c10.8,0,21.6,0,32.3,0c1.1,0,1.3,0.2,1.3,1.3     c0,16.4,0,32.8,0,49.2c0,1.2-0.3,1.5-1.5,1.5c-18.9,0-37.7,0.1-56.6-0.1c-3.9,0-7.3,0.6-10.2,3.2c-0.6,0.5-1.1,0.9-1.5,1.7     c-4.5,8.6-9,17.2-13.5,25.8c-1.9,3.6-3.4,7.6-6.8,10.3c-0.6,0.5-1.1,0.8-1.9,0.8c-5.7,0-11.4,0-17.1,0c-6.5,0-13.1,0-19.6,0     c0-12.7,0-25.4,0-38.1c1.2-1.9,2.2-4,3.2-6c11.1-21.1,22.1-42.3,33.2-63.4c0.5-1,1.6-2.1,1.5-3.1c-0.1-1-1.4-1.8-2.1-2.8     c-0.5-0.7-1.1-1-2-1c-10.8,0-21.6,0-32.5,0c-0.4,0-0.9-0.1-1.3,0.1c0-17.3,0-34.7,0-52c0.5-0.2,1-0.1,1.6-0.1     c18.9,0,37.9-0.1,56.8,0.1c3.8,0,7-0.6,9.8-3.1c0.5-0.5,1.1-0.8,1.4-1.4c3.9-7.5,7.8-15,11.8-22.4     C275.8,161.6,277.8,156,282.4,152z" style="fill:#E6E7E8;"/></g></g></g><g id="innerlight"><path d="M128.1,382.6c-70.3-70.3-70.3-184.3,0-254.6s184.3-70.3,254.6,0" style="opacity:0.2;fill:#FFFFFF;"/><g/><g/><g/><g/><g/><g/></g></svg>